<svg xmlns="http://www.w3.org/2000/svg" width="654.24" height="621.6" fill-rule="evenodd" stroke-linecap="round" preserveAspectRatio="none" viewBox="0 0 2046 1944"><style>.brush1{fill:#000}.pen1{stroke:none}.brush2{fill:#afefe5}.brush4{fill:#e3faf7}.brush5{fill:#fc0}.brush7{fill:#0e0e0e}.brush8{fill:#1c1c1c}.brush9{fill:#2a2a2a}.brush10{fill:#383838}.brush11{fill:#464646}.brush12{fill:#545454}.brush13{fill:#626262}.brush14{fill:#707070}.brush15{fill:#7e7e7e}.brush16{fill:#8c8c8c}.brush17{fill:#999}</style><path d="m1818 13 73 2 69 10 13-2 15 5 2-3h3l5 5-8 84v216l46 31h5l5 8-3 15h-22l-26-10-7 32-5 229-5 211 5 168 2 292 5 115 3 94 5 173 5 152 8 53-8 18h-15l-15-7h-120l-46 5-109 10-41 7-106 5h-26l-162 5-211-5-110-2-152-10-163-5-280 7-167 13-11 5-43 5-5-5 18-137v-39l2-200v-137l-5-76-5-54-94-10h-20l-56-10-46-26-15-15 3-15 17-5 110-3 94-13 5-5-99-25-3-3v-2l5-5 61-10 10-5h13l10-8-5-71-20-211V643l10-142 25-280-2-132-8-64V13h38l128 17h22l38 5 272 3 593-28 119-2 107-5 59-3 170 5 46 8z" class="pen1 brush1"/><path d="m1637 35 107 11 76 5 140 25h2l-2 142-3 67-2 17-31-30-23-13-13-10-12-31-3-15-45-43-100-20-68 2-31 13-30 36-23 55-48 59-26 41-23 48-25 117-16 160-5 102 11 63 15 31 25 28-101-28-87-18-101-13-64-5-102 2-94 13-76 13-61 15-81 21-82 33-109 50-104 56-99 61-64 28-2 3-16-117v-36l-5-10-2-71-5-59 2-198 8-134 7-41v-33l28-173 3-109V56l285 15 51-5h78l196-13 69-5h96l74-5 124-5 163-8 69 3 155 2z" class="pen1 brush2"/><path d="M1779 163h5l6 5h12l26 10 32 33 11 33-13 2-15 16v84l-15-16-46-2-43-18-23-15-11-13-5-18-20-20-28-10-33 7-33 36-2 25 10 26 43 28 38 10 23 3-18 37-31 224-12 153 12 40 18 31 3 2-18-2v-3l-3-2h-5l-5 5-12-5-66 5-13 5-15 15-3 44-5 5-20-5-5-6 7-12-15-21-28-30-15-56v-92l23-221 25-94 36-63 12-21 23-28h5l21-30 25-58 20-18 28-13h23l3-2 46 2 40 8z" class="pen1 brush1"/><path d="m1723 178-5 8-5 5-2-3v-10l7-13h5v13zm23 3-10 10h-2l-3-3v-7l10-11h5v11zm26 2-10 5h-6v-7l11-8h5v10zm25 0-5 13-8 2-5-5 8-15 8 3 2 2zm13 28h-3l-5-5 18-15v12l-10 8zm-20 5v23l-8 7-15 8h-23l-13-20 3-21 15-15 13-2 17 5 11 15z" class="pen1 brush1"/><path d="m1779 226-2 8-18 7-13-2-5-8v-10l15-13 16 3 7 15z" class="pen1" style="fill:#edefaf"/><path d="M1767 218v8l-5 3h-8v-11l5-2h5l3 2z" class="pen1 brush1"/><path d="m1675 259 20 31 31 28 48 20 36 8-26 5-50-13-26-15h-3l-5 5 3 8 33 20-76-8-46-20-18-28 6-23 25-26 7-2 31 2 10 8z" class="pen1 brush4"/><path d="m1795 264-33 13h-3l-5-5 8-8h15l5-5 10 3 3 2z" class="pen1 brush1"/><path d="m1896 292 43 13 36 33 51 28-66-13-79-12-26-11v-10l36 5 8-5v-7l-8-6-10-2-18-5-8-10 3-21 5-10 15 8 18 25z" class="pen1 brush5"/><path d="m1797 287-18 3-12 7-5-5v-7l25-6 10 3v5zm0 26h-15l-5 5-3-3h-5v-5l18-8 10 3v8z" class="pen1 brush1"/><path d="m1952 371-5 211-8 163 8 371v276l3 173 7 102 3 94 2 76-74 16-10 2-76 10-48 11-28 2-69 10-170 5-262-2-45-3-3-15-8-33 16-69 17-38 6-35-13-44 99-33 132-73 30-23h13l25-31 105-94 99-122 41-58 33-69 12-89-12-71-18-35-15-18-16-31-18-23-45-71-8-33 10-165 18-117 15-94 18-23 18-10 33-7h43l11-6 109 6 25 7z" class="pen1 brush2"/><path d="m1093 951 5 65 10 64 10 10 8 23 3 3 5-5v10l5 5 7-5v-18l8 18v13l5 5h8l10-18v-10l5 35-81 10-74 13-135 30-36-12-15 2-5 5 8 26-71 53h-15l-36-7-79-21-20-10-66-13-74-18-119-23-13 6-3 2 3 8 99 92 18 20-39-10-167-13-160-13-56-18-28-20-3-3v-5l87-2 116-15 44-11h5l5-5v-5l-18-8-46-5-32-10h-6l117-38 72-38 111-66 130-66 135-56 91-20 89-21 132-15 28-2 13 5 5 102z" class="pen1 brush1"/><path d="M1111 988v8l-8-150h5l3 142zm30 46-10-91v-97h8l2 188zm26 46-3 15v8l-5-142 3-112 2-3 16 3-13 231z" class="pen1 brush4"/><path d="m1213 1029 5 122 5 8 10-10-3-112 8-114 10-69 7 2h8l-2 51-8 86-3 115 11 10 7-12 5-100 23-142 21 3-16 167 3 51 2 3 11-10 7-92 8-28 15-81h16v33l-8 91 5 56 5 5 8-10 2-76 18-89 20 2-2 112 5 8 2 2 5-2 5-5 3-48 10-56h13l23 15 23 15 25 8 13-8 10-15v-36l15-10h10l8 15 3 3h5l2-20h5l6 7 5 18h7l3-3-8-20 5-2h8l7 22 3 3h7l-2-25h7l11 25 2 3h3l5-6-5-12v-8l15 3v5l10 2 43 64 34 56 10 73-13 62-10 40-51 86-127 150-135 115-152 86-49 15-48 13-2-2v-8l33-10 2-3v-5l-5-5-28 10h-5v-20l23-5 15-5 3-3v-5l-8-8-15 8-69 8-23 5-53-5-5 5v5l7 7 23-2h8l-3 20-25 3v7l18 3h2l-7 8h-23l-92-3-56-13-35-20-16-15 36-43v-5l-3-3-45 41-18-18 33-41 43-43-2-2-51 40-36 33-17-12 43-51 45-38-5-6-20 11-73 68-8-5-10-12 50-54 66-51 18-8 5-5v-2h-15l-56 36-76 71-13-8-10-10 36-43 45-39v-5h-10l-81 72-10-5-18-21 53-56 84-58-8-8-101 71-41 41-94-66-94-43-122-115 145 26 79 20 50 13 77 20 18 8 38 8 10-13h5l43-38 23-11 5-5-5-17-5-6 30 16 183-44 13-2 115-10 5-5-10-84 7-157 13-67h10l-7 178z" class="pen1 brush4"/><path d="m806 907-10 13-8 31 5 78 5 18 8 13 7 20 46 51 54 33 22 5h3l5 5v5l-8 8-20-13-46-23-53-51-20-33-94 23-158 51-112 20-20-5h-5l-18-30 8-20 22-23 10 5v7l-20 16-7 7v13l17 18h36l84-15 99-31 112-36 33-7 5-5-7-54-6-5h-61l-81 31-15 2-15 13-31 10-71 31-36 7h-13l-10-7-5-5-3-18h3l3-3 10 21 13 5 68-21 56-25-10-5h-13l-15-8-7-18v-10l5-5 2 2 8 21 23 10 73-13 36-15 2-3-18-12-15-25 5-13v-3l3-2h7l3 8-5 5 2 12 23 20 62 5 17-2 6-28v-25l12-33 5-5h8v12z" class="pen1 brush4"/><path d="M775 1106v5l-185 63-66 25-5 5h-8v-12l244-81 15-8 3 3h2zm-536 5 2 15-2-15zm559 28v7l-40 13-100 43-38 15-2 3v2h-5v-10l50-20 130-56h3l2 3zm-2 48-97 45-3-2v-5l92-44h8v6z" class="pen1" style="fill:#fff"/><path d="m450 1317 69 22 73 38 76 54 95 97 10 15 43 32 71 64 18 5-8 41 38 73 11 69-3 13-5 36h-48l-158-13H389l-18 5-86-3-5-68 5-84-5-135-3-96-5-23v-49l-8-111 92 5 94 13z" class="pen1 brush2"/><path d="m1042 1520 3 2v3l-6 5-65-5-5-5 45 5 28-5z" class="pen1 brush1"/><path d="m1164 1626 28 72-18 63-17 59v45l5 21-3 2h-51l-10-127-13-28-12-12v-31l22-48 11-39 40-7h18v30zm-140 34 10-3h8l-5 25-30 56-5 54 7 45 20 51-76-10 8-61-18-81-30-59 5-20 7-8 28 3 71 8z" class="pen1 brush5"/><path d="m1070 1662-13 26v33l23 35 8 53 5 82-41-3h-7l-26-68-2-62 12-32 26-46 5-23h5l5 5z" class="pen1 brush2"/><path d="m925 1631 5-1 5-2 6-2 5-3 7-3 7-3 9-4 9-4 19-8 15-9 11-9 11-8 9-9 11-8 12-7 16-8 17-6 17-5 16-3 15-2 15-1 15 1h14l14 2 16 1h18l20-3 21-4 11-3 11-3 11-4 11-5 11-6 11-6 10-7 10-7 22-18 28-20 30-23 31-23 30-24 28-24 12-11 11-11 9-11 7-10 13-19 14-19 14-17 14-18 13-17 12-17 11-18 8-17 8-19 7-21 7-22 6-23 2-12 2-11 1-11v-11l-1-11-2-10-2-10-4-9-7-15-8-17-9-17-8-18-8-18-8-16-7-15-5-12h7l11 25 2 3h3l5-6-5-12v-8l15 3v5l10 2 43 64 34 56 10 73-13 62-10 40-51 86-127 150-135 115-152 86-49 15-48 13-2-2v-8l33-10 2-3v-5l-5-5-28 10h-5v-20l23-5 15-5 3-3v-5l-8-8-15 8-69 8-23 5-53-5-5 5v5l7 7 23-2h8l-3 20-25 3v7l18 3h2l-7 8h-23l-92-3-33-8z" class="pen1" style="fill:#e5e5e5"/><path d="m1129 1545-56 15-34 5-55-7-43-8-23 3h-3v-10l87 10 15 5 61-5 43-15 8 2v5zm-160 69h63l2 2v3l-60 5-23-8-49-23-2 3h-5v-10l48 15 26 13zm558-1256 4 2 3 4 3 5 2 8 2 9 2 11 1 12 1 14v32l-1 36-3 39-5 42-7 42-7 39-9 35-9 30-4 13-5 11-4 10-5 9-4 6-4 5-5 3h-4l-3-1-3-4-3-6-3-7-2-9-2-11-1-13-1-14v-31l2-36 3-39 5-42 6-42 8-39 8-35 9-30 5-13 4-12 5-10 4-8 5-7 4-4 4-3 4-1z" class="pen1 brush1"/><path d="m1526 360 4 2 3 3 2 6 3 7 1 9 2 11 1 12 1 14v31l-2 35-3 39-5 42-7 41-7 38-8 35-9 30-4 13-4 11-5 10-4 8-4 7-4 5-4 2-4 1-3-2-3-3-3-6-2-7-2-9-1-11-2-12v-45l1-36 4-38 5-42 6-41 7-39 9-34 8-30 4-13 5-11 4-10 4-9 4-6 5-5 3-2 4-1z" class="pen1 brush7"/><path d="m1525 362 4 1 2 4 3 5 2 7 2 9 1 11 1 12v44l-2 35-3 38-5 41-6 41-7 38-8 34-8 30-9 24-8 18-4 6-4 5-3 3h-4l-3-1-3-4-2-5-2-8-2-8-1-11-1-12-1-14v-30l2-35 3-39 5-41 7-40 7-38 8-34 8-30 8-24 8-18 4-7 4-4 4-3h3z" class="pen1 brush8"/><path d="m1524 363 3 2 3 3 2 6 2 7 3 19 1 25-1 30-1 35-4 38-5 40-6 41-7 37-8 34-7 29-8 24-8 18-4 6-3 5-4 2-3 1-3-2-3-3-2-6-2-7-2-19-1-25v-30l2-35 3-38 5-40 6-40 7-38 8-34 8-29 8-24 7-18 4-6 4-5 3-2 3-1z" class="pen1 brush9"/><path d="m1524 365 2 1 3 4 2 5 1 7 3 19v55l-2 34-4 37-5 40-6 40-7 37-7 33-7 29-8 24-7 17-4 6-3 5-3 3h-3l-3-1-2-4-2-5-2-7-2-19-1-25 1-29 2-34 3-38 5-40 6-40 7-37 7-33 8-29 7-23 7-18 4-6 3-5 4-3h3z" class="pen1 brush10"/><path d="m1523 366 2 2 2 3 2 5 2 7 1 19 1 24-1 30-2 33-4 37-5 40-6 39-6 36-7 33-7 29-7 23-7 18-4 6-3 5-3 2-2 1-3-2-2-3-2-5-1-7-2-19-1-24 1-30 2-33 4-37 5-39 6-40 6-36 7-33 8-29 7-23 7-17 3-7 3-4 3-3 3-1z" class="pen1 brush11"/><path d="m1522 368 2 1 2 4 2 5 1 7 1 18 1 24-2 29-2 33-4 37-4 38-6 39-7 36-6 33-7 28-7 23-6 17-3 7-3 4-3 3h-3l-2-1-2-3-1-5-2-7-1-19v-24l1-29 2-33 4-36 5-39 6-39 6-36 7-32 6-29 7-23 7-17 3-6 3-5 2-2 3-1z" class="pen1 brush12"/><path d="m1521 370 2 1 2 3 1 5 1 7 1 18v24l-1 28-3 33-3 36-5 38-6 38-6 36-7 32-6 28-6 23-6 17-3 6-3 4-2 3-3 1-2-1-1-4-2-5-1-6-1-18v-24l1-29 3-32 4-36 5-39 5-38 6-35 7-33 6-27 7-23 6-17 3-7 2-4 3-3h2z" class="pen1 brush13"/><path d="m1520 371 2 2 1 3 1 5 1 6 1 18v23l-2 28-3 33-3 35-5 38-6 38-6 35-6 31-6 28-6 23-6 16-2 7-3 4-2 3h-2l-2-1-1-3-1-5-1-7-1-17 1-24 1-28 3-32 4-35 4-38 6-38 6-35 6-32 6-27 6-23 6-17 2-6 3-4 2-3 2-1z" class="pen1 brush14"/><path d="m1519 373 2 1 1 3 1 5 1 6v18l-1 23-2 28-2 31-4 35-5 38-6 37-5 35-6 31-6 27-5 22-6 17-2 6-2 4-2 3-2 1-2-1-1-3-1-5v-7l-1-17 1-23 2-28 3-32 3-35 5-37 6-37 5-35 6-31 6-27 6-23 5-16 2-6 2-5 2-2 2-1z" class="pen1 brush15"/><path d="m1518 375 2 1 1 3v4l1 7v17l-1 23-2 27-3 31-4 35-5 36-5 37-6 34-5 31-6 27-5 22-5 17-2 6-2 4-2 3h-1l-2-1-1-3v-5l-1-6v-17l1-23 2-27 3-31 4-35 5-37 5-36 6-34 6-31 5-27 5-22 5-17 2-6 2-4 2-3h1z" class="pen1 brush16"/><path d="m1517 376 2 1v3l1 5v23l-2 22-2 27-3 31-4 34-5 36-5 36-5 34-6 31-5 26-5 22-4 16-2 6-2 4-1 3-1 1-1-1-1-3-1-5v-23l2-22 2-27 3-31 4-34 5-36 5-36 5-34 6-31 5-26 5-22 4-16 2-6 2-4 1-3 1-1z" class="pen1 brush17"/><path d="m961 847 12-1h12l12 1 11 1 11 1 10 2 10 2 9 3 8 3 7 4 6 4 6 4 4 5 4 5 2 5 1 5v6l-1 6-3 5-4 5-4 5-6 5-7 5-7 5-8 4-9 4-10 3-11 3-11 3-11 3-12 1-12 2h-13l-12 1-11-1-12-1-10-1-10-2-10-2-9-3-8-4-7-3-7-4-5-4-5-5-3-5-2-5-1-6v-5l1-6 3-5 3-6 5-5 6-5 6-4 8-5 8-4 9-4 10-4 10-3 11-3 12-2 12-2 12-1z" class="pen1 brush1"/><path d="m959 848 12-1h22l11 1 10 2 10 1 9 3 8 2 8 3 7 4 6 4 5 4 4 4 3 5 3 5 1 5-1 5-1 5-2 5-4 5-4 5-6 5-6 5-7 4-16 7-19 7-21 5-23 2-12 1h-22l-11-1-10-1-10-2-9-2-8-3-8-3-7-3-6-4-5-4-4-5-4-4-2-5-1-5v-6l2-5 2-5 4-5 4-5 6-5 6-4 7-4 16-8 19-6 21-5 23-3z" class="pen1 brush7"/><path d="m958 849 21-1 21 1 18 3 17 5 7 2 6 4 6 3 5 4 4 4 3 5 2 4 1 5v5l-1 5-3 5-3 5-4 4-5 5-6 4-7 4-15 7-18 6-20 5-21 2-22 1-21-1-18-3-17-5-7-2-6-4-6-3-5-4-4-4-3-5-2-4-1-5v-5l2-5 2-5 3-5 4-4 5-5 6-4 7-4 15-7 18-6 20-5 22-2z" class="pen1 brush8"/><path d="M956 849h20l19 1 18 2 15 5 7 3 6 3 6 3 4 3 4 4 3 5 2 4v9l-1 5-2 4-3 5-4 4-5 4-5 4-6 4-15 7-17 5-18 5-21 2-20 1-19-1-17-3-16-4-7-3-6-3-5-3-5-4-3-4-3-4-2-4-1-5v-5l1-4 2-5 3-4 4-5 5-4 6-4 6-4 14-6 17-6 19-4 20-3z" class="pen1 brush9"/><path d="m954 850 19-1 18 1 16 3 15 4 6 3 6 2 5 4 4 3 4 4 2 3 2 5 1 4v4l-1 5-2 4-3 4-4 4-4 4-5 4-6 3-14 7-15 5-18 4-19 2-19 1-18-1-16-3-14-4-7-2-5-3-5-3-4-4-4-3-3-4-1-4-1-5v-4l1-4 2-5 3-4 3-4 5-4 5-4 6-3 13-6 16-6 17-4 19-2z" class="pen1 brush10"/><path d="m953 851 17-1 17 1 15 3 13 3 12 5 8 6 3 4 3 3 2 4v8l-1 4-2 4-2 4-8 8-10 6-13 6-14 5-16 4-18 2-17 1-17-1-15-3-14-4-11-5-8-6-4-3-2-4-2-3v-9l1-4 2-4 2-3 8-8 10-7 12-5 15-5 16-4 18-2z" class="pen1 brush11"/><path d="M951 851h16l16 1 14 2 12 4 10 4 8 6 3 3 3 3 1 4 1 4v3l-1 4-2 4-2 3-7 7-10 6-11 6-14 4-15 4-16 2h-32l-14-3-12-3-10-5-8-5-3-4-2-3-2-3-1-4v-4l1-4 2-3 3-4 6-7 10-6 11-6 14-4 15-3 16-3z" class="pen1 brush12"/><path d="M949 852h15l14 1 13 2 12 3 9 4 7 5 3 3 2 3 2 4v6l-1 4-1 3-3 4-6 6-9 6-10 5-13 4-13 3-15 2h-15l-14-1-13-2-11-3-10-4-7-5-3-3-2-3-1-4-1-3v-3l1-4 2-3 2-4 6-6 9-6 11-5 12-4 14-3 14-2z" class="pen1 brush13"/><path d="m948 853 13-1 13 1 12 2 10 3 9 4 6 5 3 2 2 3 1 3 1 3v3l-1 4-2 3-2 3-6 5-7 6-10 4-11 4-13 3-13 2h-14l-13-1-11-2-10-3-9-3-7-5-2-3-2-3-1-3-1-3v-3l1-3 1-3 2-3 6-6 8-5 10-5 11-3 12-3 14-2z" class="pen1 brush14"/><path d="m946 854 12-1 12 1 10 2 10 2 7 4 6 4 3 3 1 2 1 3 1 3v2l-1 3-1 3-2 3-5 5-7 5-9 4-10 3-11 3-12 1-13 1-11-1-11-2-9-2-8-4-6-4-2-2-2-3-1-3v-5l1-3 1-3 2-3 5-5 7-5 9-4 10-3 11-3 12-1z" class="pen1 brush15"/><path d="M944 854h11l11 1 9 1 8 3 7 3 5 4 4 4 1 5v5l-3 5-5 5-6 4-8 4-9 3-10 2-10 1-11 1-11-1-9-1-8-3-7-3-5-4-4-4-1-5v-5l3-5 5-5 6-4 8-4 9-3 10-2 10-2z" class="pen1 brush16"/><path d="M943 855h18l9 2 7 2 6 3 4 3 4 4 1 4-1 5-2 4-4 4-6 4-7 3-7 3-9 2-10 1-9 1-9-1-8-1-7-3-7-2-4-4-3-4-2-4 1-4 2-5 4-4 6-4 7-3 8-3 8-2 10-1z" class="pen1 brush17"/></svg>
